<?xml version="1.0" standalone="no"?><!DOCTYPE svg PUBLIC "-//W3C//DTD SVG 1.1//EN" "http://www.w3.org/Graphics/SVG/1.1/DTD/svg11.dtd"><svg t="1696748083934" class="icon" viewBox="0 0 1024 1024" version="1.1" xmlns="http://www.w3.org/2000/svg" p-id="6752" width="48" height="48" xmlns:xlink="http://www.w3.org/1999/xlink"><path d="M969.173333 300.373333h-14.336c-10.773333 0-19.616-8.853333-19.616-19.541333v-38.336a22.357333 22.357333 0 0 0-18.517333-22.346667c-148.245333-28.394667-282.986667-27.84-385.642667 44.426667-18.304 12.906667-20.021333 12.757333-38.058666 0-102.72-72.202667-237.525333-72.821333-385.781334-44.426667a22.485333 22.485333 0 0 0-18.517333 22.346667v38.336a19.573333 19.573333 0 0 1-19.541333 19.541333H54.837333C42.218667 300.373333 32 310.592 32 323.136l0.138667 458.346667c0 12.608 10.218667 22.752 22.826666 22.752h387.232c7.2 0 13.024 5.898667 13.024 12.96 0 7.754667 5.077333 14.058667 13.098667 14.058666h87.296c7.264 0 13.088-5.898667 13.088-12.96 0-7.744 5.013333-14.058667 13.034667-14.058666H968.96c12.48 0 22.762667-10.144 22.762667-22.762667L992 323.136a22.816 22.816 0 0 0-22.826667-22.762667zM479.893333 759.733333c-91.328-57.045333-210.368-63.637333-337.226666-42.453333a21.109333 21.109333 0 0 1-24.618667-20.906667l-0.213333-432.682666c0-11.242667 7.957333-20.64 18.997333-22.634667 132.341333-22.282667 254.197333-13.504 342.933333 53.557333 11.381333 8.576 17.482667 20.906667 17.482667 35.114667l0.138667 420.341333c0 8.981333-9.738667 14.464-17.493334 9.664z m426.112-63.36a21.173333 21.173333 0 0 1-24.693333 20.906667c-126.922667-21.184-245.898667-14.592-337.226667 42.453333-7.68 4.8-17.493333-0.682667-17.493333-9.738666l0.213333-420.341334c0-14.186667 6.026667-26.538667 17.408-35.104 88.736-67.061333 210.592-75.776 342.933334-53.493333a22.762667 22.762667 0 0 1 19.061333 22.56l-0.213333 432.757333z" fill="#000000" fill-opacity=".066" p-id="6753"></path></svg>