<svg width="256" height="256" viewBox="0 0 256 256" fill="none" xmlns="http://www.w3.org/2000/svg">
<g clip-path="url(#clip0_4_8)">
<path d="M196 0H60C26.8629 0 0 26.8629 0 60V196C0 229.137 26.8629 256 60 256H196C229.137 256 256 229.137 256 196V60C256 26.8629 229.137 0 196 0Z" fill="white"/>
<rect width="59.7403" height="93.5065" rx="29.8701" transform="matrix(-0.707107 0.707107 0.707107 0.707107 78.4106 36.1679)" fill="url(#paint0_linear_4_8)" style="mix-blend-mode:multiply"/>
<rect x="121.507" y="98.1299" width="59.7403" height="93.5065" rx="29.8701" transform="rotate(90 121.507 98.1299)" fill="url(#paint1_linear_4_8)" style="mix-blend-mode:multiply"/>
<rect x="102.287" y="111.47" width="59.7403" height="93.5065" rx="29.8701" transform="rotate(45 102.287 111.47)" fill="url(#paint2_linear_4_8)" style="mix-blend-mode:multiply"/>
<rect x="98.1299" y="134.494" width="59.7402" height="93.5065" rx="29.8701" fill="url(#paint3_linear_4_8)" style="mix-blend-mode:multiply"/>
<rect width="59.7403" height="93.5065" rx="29.8701" transform="matrix(-0.707107 0.707107 0.707107 0.707107 153.713 111.47)" fill="url(#paint4_linear_4_8)" style="mix-blend-mode:multiply"/>
<rect x="228" y="98.1299" width="59.7403" height="93.5065" rx="29.8701" transform="rotate(90 228 98.1299)" fill="url(#paint5_linear_4_8)" style="mix-blend-mode:multiply"/>
<rect x="177.589" y="36.1679" width="59.7403" height="93.5065" rx="29.8701" transform="rotate(45 177.589 36.1679)" fill="url(#paint6_linear_4_8)" style="mix-blend-mode:multiply"/>
<rect x="98.1299" y="28" width="59.7402" height="93.5065" rx="29.8701" fill="url(#paint7_linear_4_8)" style="mix-blend-mode:multiply"/>
</g>
<defs>
<linearGradient id="paint0_linear_4_8" x1="29.8701" y1="0" x2="29.8701" y2="93.5065" gradientUnits="userSpaceOnUse">
<stop offset="0.0352257" stop-color="#FF7171"/>
<stop offset="1" stop-color="#EA1616" stop-opacity="0.6"/>
</linearGradient>
<linearGradient id="paint1_linear_4_8" x1="151.377" y1="98.1299" x2="151.377" y2="191.636" gradientUnits="userSpaceOnUse">
<stop stop-color="#BB004F" stop-opacity="0.6"/>
<stop offset="1" stop-color="#D893C3"/>
</linearGradient>
<linearGradient id="paint2_linear_4_8" x1="132.157" y1="111.47" x2="132.157" y2="204.977" gradientUnits="userSpaceOnUse">
<stop stop-color="#825475" stop-opacity="0.6"/>
<stop offset="1" stop-color="#B297DF"/>
</linearGradient>
<linearGradient id="paint3_linear_4_8" x1="128" y1="134.494" x2="128" y2="228" gradientUnits="userSpaceOnUse">
<stop stop-color="#5842AD" stop-opacity="0.6"/>
<stop offset="1" stop-color="#70AADA"/>
</linearGradient>
<linearGradient id="paint4_linear_4_8" x1="29.8701" y1="0" x2="29.8701" y2="93.5065" gradientUnits="userSpaceOnUse">
<stop stop-color="#007E9A" stop-opacity="0.6"/>
<stop offset="1" stop-color="#80BF94"/>
</linearGradient>
<linearGradient id="paint5_linear_4_8" x1="257.87" y1="98.1299" x2="257.87" y2="191.636" gradientUnits="userSpaceOnUse">
<stop stop-color="#C5D862"/>
<stop offset="1" stop-color="#42A963" stop-opacity="0.6"/>
</linearGradient>
<linearGradient id="paint6_linear_4_8" x1="207.459" y1="36.1679" x2="207.459" y2="129.674" gradientUnits="userSpaceOnUse">
<stop stop-color="#F6E552"/>
<stop offset="1" stop-color="#9AC73C" stop-opacity="0.6"/>
</linearGradient>
<linearGradient id="paint7_linear_4_8" x1="128" y1="28" x2="128" y2="121.506" gradientUnits="userSpaceOnUse">
<stop stop-color="#FFA235"/>
<stop offset="1" stop-color="#CFBB09" stop-opacity="0.66"/>
</linearGradient>
<clipPath id="clip0_4_8">
<rect width="256" height="256" fill="white"/>
</clipPath>
</defs>
</svg>
