<?xml version="1.0" standalone="no"?><!DOCTYPE svg PUBLIC "-//W3C//DTD SVG 1.1//EN" "http://www.w3.org/Graphics/SVG/1.1/DTD/svg11.dtd"><svg t="1696749168939" class="icon" viewBox="0 0 1024 1024" version="1.1" xmlns="http://www.w3.org/2000/svg" p-id="12511" xmlns:xlink="http://www.w3.org/1999/xlink" width="48" height="48"><path d="M536.234626 0H717.184484c15.984863 148.071902 98.028382 229.025544 246.5544 244.889309v176.650899c-42.656575 5.600757-154.580889-10.505203-246.978241-75.413434v13.74456c0 112.015137 0.333018 224.030274 0 336.045412-0.514664 143.772942-90.490066 267.564806-225.66509 311.583727A328.325449 328.325449 0 0 1 68.192999 768.242195c-41.839167-182.070009 86.130558-367.470199 271.016083-392.022706a510.183538 510.183538 0 0 1 60.851467-3.693472c13.290445-0.181646 26.611164 2.14948 40.507095 3.421003v185.945128c-10.68685-2.300851-20.768212-5.540208-31.061495-6.539262-59.822138-5.9035-108.836329 14.44087-141.926206 65.029328s-33.66509 103.538316-2.240303 154.399243 79.712394 74.626301 140.018922 68.783349c76.140019-7.386944 130.84579-69.086093 130.906339-146.527909q0.272469-340.374645 0-680.749291z" p-id="12512" fill="#ffffff"></path></svg>